<?xml version="1.0" encoding="utf-8"?>
<!-- Generator: Adobe Illustrator 18.1.1, SVG Export Plug-In . SVG Version: 6.00 Build 0)  -->
<svg version="1.1" id="Layer_1" xmlns="http://www.w3.org/2000/svg" xmlns:xlink="http://www.w3.org/1999/xlink" x="0px" y="0px"
	 viewBox="0 0 317.9 133.2" enable-background="new 0 0 317.9 133.2" xml:space="preserve">
<g>
	<polygon fill="#FFFFFF" points="29.1,85.6 107,-2.4 107,85.6 	"/>
	<g>
		<polygon fill="#FFFFFF" points="278.9,-2.4 201,85.6 201,-2.4 		"/>
		<polygon fill="#FFFFFF" points="317.9,-2.4 240,85.6 240,-2.4 		"/>
	</g>
	<g>
		<polygon fill="#FFFFFF" points="115.1,85.6 193,-2.4 193,85.6 		"/>
		<polygon fill="#FFFFFF" points="192.9,85.6 115,-2.4 115,85.6 		"/>
	</g>
</g>
<g>
	<path fill="#FFFFFF" d="M46.9,105.2h0.7l7.3,17h-0.9l-2.5-5.9H43l-2.5,5.9h-0.9L46.9,105.2z M51.3,115.6l-4-9.4l-4,9.4H51.3z"/>
	<path fill="#FFFFFF" d="M67.3,122.2h-0.8v-7c0-1.7-0.2-3-0.7-3.8c-0.5-0.8-1.3-1.2-2.3-1.2c-0.6,0-1.1,0.1-1.7,0.3
		s-1.1,0.5-1.5,0.9c-0.5,0.4-0.9,0.8-1.2,1.3s-0.6,1-0.8,1.6v7.8h-0.8v-12.5h0.8v3.1c0.3-0.5,0.6-0.9,1-1.4c0.4-0.4,0.8-0.8,1.3-1
		s1-0.5,1.5-0.7c0.5-0.2,1.1-0.2,1.6-0.2c1.3,0,2.3,0.5,2.8,1.4c0.6,0.9,0.9,2.3,0.9,4.2V122.2z"/>
	<path fill="#FFFFFF" d="M81,122.2h-0.8v-7c0-1.7-0.2-3-0.7-3.8c-0.5-0.8-1.3-1.2-2.3-1.2c-0.6,0-1.1,0.1-1.7,0.3s-1.1,0.5-1.5,0.9
		c-0.5,0.4-0.9,0.8-1.2,1.3s-0.6,1-0.8,1.6v7.8H71v-12.5h0.8v3.1c0.3-0.5,0.6-0.9,1-1.4c0.4-0.4,0.8-0.8,1.3-1s1-0.5,1.5-0.7
		c0.5-0.2,1.1-0.2,1.6-0.2c1.3,0,2.3,0.5,2.8,1.4c0.6,0.9,0.9,2.3,0.9,4.2V122.2z"/>
	<path fill="#FFFFFF" d="M87.7,122.4c-0.6,0-1.1-0.1-1.6-0.3c-0.5-0.2-0.9-0.5-1.3-0.8c-0.4-0.3-0.7-0.7-0.9-1.2
		c-0.2-0.5-0.3-1-0.3-1.5c0-0.5,0.1-1,0.4-1.5s0.6-0.8,1.1-1.1c0.5-0.3,1-0.6,1.6-0.7c0.6-0.2,1.3-0.3,2.1-0.3
		c0.7,0,1.4,0.1,2.1,0.2c0.7,0.1,1.4,0.3,1.9,0.5v-1.3c0-1.2-0.4-2.2-1.1-3c-0.7-0.7-1.7-1.1-2.9-1.1c-0.6,0-1.3,0.1-1.9,0.4
		c-0.7,0.3-1.4,0.6-2.1,1.1l-0.4-0.6c1.6-1.1,3.1-1.6,4.4-1.6c1.5,0,2.6,0.4,3.4,1.3c0.8,0.9,1.3,2,1.3,3.6v6.5
		c0,0.4,0.1,0.5,0.4,0.5v0.8c0,0-0.1,0-0.1,0c0,0-0.1,0-0.1,0c-0.3,0-0.5-0.1-0.7-0.3c-0.2-0.2-0.3-0.4-0.3-0.7v-1.1
		c-0.6,0.8-1.3,1.3-2.2,1.7S88.8,122.4,87.7,122.4z M87.8,121.7c0.6,0,1.2-0.1,1.8-0.2c0.6-0.2,1.1-0.4,1.6-0.7
		c0.5-0.3,0.9-0.6,1.2-1c0.3-0.4,0.5-0.8,0.5-1.2v-2.4c-1.2-0.5-2.6-0.7-4-0.7c-0.7,0-1.3,0.1-1.8,0.2c-0.5,0.1-1,0.3-1.4,0.6
		s-0.7,0.6-0.9,0.9c-0.2,0.4-0.3,0.8-0.3,1.2c0,0.4,0.1,0.9,0.3,1.2s0.4,0.7,0.7,1c0.3,0.3,0.7,0.5,1.1,0.7
		C86.9,121.7,87.3,121.7,87.8,121.7z"/>
	<path fill="#FFFFFF" d="M119.7,122.2v-15.4l-7.2,12.1H112l-7.2-12.1v15.4H104v-17h0.8l7.5,12.7l7.5-12.7h0.8v17H119.7z"/>
	<path fill="#FFFFFF" d="M124.8,106.7v-2h0.8v2H124.8z M124.8,122.2v-12.5h0.8v12.5H124.8z"/>
	<path fill="#FFFFFF" d="M128.6,115.9c0-0.9,0.2-1.7,0.5-2.5c0.3-0.8,0.7-1.5,1.3-2c0.5-0.6,1.2-1,1.9-1.4c0.7-0.3,1.5-0.5,2.4-0.5
		c1.1,0,2.1,0.3,2.9,0.8c0.8,0.5,1.5,1.2,1.9,2.1l-0.8,0.3c-0.4-0.7-1-1.3-1.7-1.7c-0.7-0.4-1.5-0.6-2.4-0.6c-0.7,0-1.4,0.1-2,0.4
		c-0.6,0.3-1.2,0.7-1.7,1.2c-0.5,0.5-0.8,1.1-1.1,1.8c-0.3,0.7-0.4,1.4-0.4,2.2c0,0.8,0.1,1.5,0.4,2.2c0.3,0.7,0.7,1.3,1.1,1.8
		c0.5,0.5,1,0.9,1.7,1.2c0.6,0.3,1.3,0.5,2,0.5c0.5,0,0.9-0.1,1.4-0.2c0.5-0.1,0.9-0.3,1.3-0.5c0.4-0.2,0.7-0.5,1-0.8
		s0.5-0.6,0.6-0.9l0.8,0.2c-0.1,0.4-0.4,0.8-0.7,1.2c-0.3,0.4-0.7,0.7-1.2,0.9c-0.4,0.3-0.9,0.5-1.5,0.6c-0.5,0.2-1.1,0.2-1.6,0.2
		c-0.8,0-1.6-0.2-2.4-0.5c-0.7-0.3-1.4-0.8-1.9-1.4c-0.6-0.6-1-1.3-1.3-2.1C128.8,117.6,128.6,116.8,128.6,115.9z"/>
	<path fill="#FFFFFF" d="M152.4,122.2h-0.8v-7c0-3.3-1.1-4.9-3.3-4.9c-0.6,0-1.1,0.1-1.6,0.3s-1,0.5-1.5,0.9
		c-0.4,0.4-0.8,0.8-1.2,1.3s-0.6,1-0.7,1.6v7.8h-0.8v-17.5h0.8v8.2c0.3-0.5,0.6-0.9,0.9-1.4s0.8-0.8,1.2-1s0.9-0.5,1.4-0.7
		s1-0.2,1.5-0.2c1.3,0,2.3,0.5,3,1.5c0.6,1,1,2.4,1,4.2V122.2z"/>
	<path fill="#FFFFFF" d="M161.4,122.4c-0.8,0-1.6-0.2-2.4-0.5c-0.7-0.3-1.4-0.8-1.9-1.4c-0.6-0.6-1-1.3-1.3-2.1s-0.5-1.6-0.5-2.5
		c0-0.9,0.2-1.7,0.5-2.5c0.3-0.8,0.7-1.4,1.3-2c0.5-0.6,1.2-1,1.9-1.4c0.7-0.3,1.5-0.5,2.4-0.5c0.9,0,1.7,0.2,2.4,0.5
		c0.7,0.3,1.4,0.8,1.9,1.4c0.5,0.6,1,1.3,1.3,2.1c0.3,0.8,0.5,1.6,0.5,2.5c0,0,0,0.1,0,0.2s0,0.2,0,0.2h-11.2
		c0.1,0.8,0.2,1.5,0.5,2.1c0.3,0.7,0.7,1.2,1.2,1.7c0.5,0.5,1,0.9,1.6,1.1c0.6,0.3,1.3,0.4,2,0.4c0.4,0,0.9-0.1,1.3-0.2
		s0.9-0.3,1.2-0.5c0.4-0.2,0.7-0.5,1-0.8c0.3-0.3,0.5-0.7,0.7-1l0.7,0.2c-0.2,0.4-0.4,0.8-0.8,1.2c-0.3,0.4-0.7,0.7-1.2,1
		c-0.5,0.3-0.9,0.5-1.5,0.6C162.5,122.4,161.9,122.4,161.4,122.4z M166.5,115.6c0-0.8-0.2-1.5-0.5-2.2c-0.3-0.7-0.7-1.2-1.1-1.7
		c-0.5-0.5-1-0.9-1.6-1.1c-0.6-0.3-1.3-0.4-2-0.4c-0.7,0-1.4,0.1-2,0.4c-0.6,0.3-1.1,0.6-1.6,1.1s-0.8,1-1.1,1.7
		c-0.3,0.7-0.4,1.4-0.5,2.1H166.5z"/>
	<path fill="#FFFFFF" d="M170.2,104.7h0.8v15.4c0,0.5,0.1,0.8,0.4,1.1c0.3,0.3,0.7,0.4,1.1,0.4c0.2,0,0.4,0,0.6-0.1s0.5-0.1,0.7-0.2
		l0.2,0.7c-0.2,0.1-0.5,0.2-0.9,0.2c-0.4,0.1-0.7,0.1-0.9,0.1c-0.6,0-1.1-0.2-1.5-0.6c-0.4-0.4-0.6-0.9-0.6-1.5V104.7z"/>
	<path fill="#FFFFFF" d="M181.2,122.4c-0.8,0-1.6-0.2-2.4-0.5c-0.7-0.3-1.4-0.8-1.9-1.4c-0.6-0.6-1-1.3-1.3-2.1
		c-0.3-0.8-0.5-1.6-0.5-2.5c0-0.9,0.2-1.7,0.5-2.5c0.3-0.8,0.7-1.4,1.3-2s1.2-1,1.9-1.4c0.7-0.3,1.5-0.5,2.4-0.5
		c0.9,0,1.7,0.2,2.4,0.5c0.7,0.3,1.4,0.8,1.9,1.4s1,1.3,1.3,2.1c0.3,0.8,0.5,1.6,0.5,2.5c0,0,0,0.1,0,0.2s0,0.2,0,0.2H176
		c0.1,0.8,0.2,1.5,0.5,2.1c0.3,0.7,0.7,1.2,1.2,1.7c0.5,0.5,1,0.9,1.6,1.1c0.6,0.3,1.3,0.4,2,0.4c0.4,0,0.9-0.1,1.3-0.2
		s0.9-0.3,1.2-0.5c0.4-0.2,0.7-0.5,1-0.8c0.3-0.3,0.5-0.7,0.7-1l0.7,0.2c-0.2,0.4-0.4,0.8-0.8,1.2c-0.3,0.4-0.7,0.7-1.2,1
		c-0.5,0.3-0.9,0.5-1.5,0.6C182.3,122.4,181.8,122.4,181.2,122.4z M186.4,115.6c0-0.8-0.2-1.5-0.5-2.2c-0.3-0.7-0.7-1.2-1.1-1.7
		c-0.5-0.5-1-0.9-1.6-1.1c-0.6-0.3-1.3-0.4-2-0.4s-1.4,0.1-2,0.4c-0.6,0.3-1.1,0.6-1.6,1.1s-0.8,1-1.1,1.7s-0.4,1.4-0.5,2.1H186.4z"
		/>
	<path fill="#FFFFFF" d="M202.4,105.3h0.8l2.6,6.3l2.7-6.3h0.8l-3,7l3.8,8.9l6.9-16.1h0.9l-7.4,17h-0.8l-3.9-9.1l-3.9,9.1h-0.8
		l-7.3-17h0.9l6.9,16.1l3.8-8.9L202.4,105.3z"/>
	<path fill="#FFFFFF" d="M221,126.8c0.5,0,0.9-0.1,1.1-0.2c0.1,0,0.2-0.1,0.3-0.3s0.2-0.3,0.3-0.6c0.1-0.3,0.3-0.7,0.6-1.3
		c0.2-0.6,0.6-1.3,0.9-2.2l-5.7-12.5h0.9l5.3,11.6l4.9-11.6h0.8l-7.1,16.7c-0.2,0.5-0.7,0.9-1.3,1c-0.2,0-0.3,0.1-0.5,0.1
		c-0.2,0-0.3,0-0.5,0V126.8z"/>
	<path fill="#FFFFFF" d="M237.6,122.4c-0.9,0-1.7-0.2-2.4-0.6s-1.4-0.9-1.9-1.5c-0.5-0.6-0.9-1.3-1.2-2.1c-0.3-0.8-0.4-1.6-0.4-2.4
		c0-0.8,0.1-1.7,0.4-2.4c0.3-0.8,0.7-1.5,1.2-2.1c0.5-0.6,1.1-1.1,1.8-1.4c0.7-0.4,1.5-0.5,2.4-0.5c0.5,0,1.1,0.1,1.5,0.2
		c0.5,0.2,0.9,0.4,1.3,0.6c0.4,0.3,0.8,0.6,1.2,1c0.4,0.4,0.7,0.8,1,1.2v-2.8h0.8v12.9c0,0.8-0.2,1.6-0.5,2.2
		c-0.3,0.6-0.7,1.1-1.2,1.5c-0.5,0.4-1.1,0.7-1.8,0.9c-0.7,0.2-1.4,0.3-2.2,0.3c-0.7,0-1.4-0.1-2-0.2c-0.6-0.1-1.1-0.3-1.5-0.6
		c-0.4-0.3-0.8-0.6-1.1-0.9c-0.3-0.4-0.6-0.8-0.9-1.2l0.6-0.3c0.5,0.9,1.2,1.5,2.1,1.9c0.9,0.4,1.8,0.6,2.8,0.6
		c0.7,0,1.3-0.1,1.9-0.3c0.6-0.2,1.1-0.4,1.5-0.8c0.4-0.4,0.8-0.8,1.1-1.3c0.3-0.5,0.4-1.1,0.4-1.8v-2.9c-0.3,0.4-0.6,0.8-0.9,1.1
		c-0.4,0.3-0.7,0.6-1.2,0.9s-0.9,0.4-1.3,0.6S238.1,122.4,237.6,122.4z M237.7,121.7c0.6,0,1.1-0.1,1.6-0.3c0.5-0.2,1-0.5,1.5-0.8
		c0.4-0.3,0.8-0.7,1.1-1.2c0.3-0.4,0.4-0.9,0.5-1.3v-4.3c-0.2-0.5-0.5-1-0.8-1.4c-0.3-0.4-0.7-0.8-1.2-1.1c-0.4-0.3-0.9-0.5-1.4-0.7
		c-0.5-0.2-1-0.3-1.5-0.3c-0.8,0-1.5,0.2-2.1,0.5s-1.2,0.8-1.6,1.3c-0.4,0.5-0.8,1.2-1,1.8c-0.2,0.7-0.3,1.4-0.3,2.1
		c0,0.8,0.1,1.5,0.4,2.1c0.3,0.7,0.6,1.3,1.1,1.8c0.5,0.5,1,0.9,1.7,1.2C236.3,121.5,237,121.7,237.7,121.7z"/>
	<path fill="#FFFFFF" d="M250.1,122.4c-0.6,0-1.1-0.1-1.6-0.3c-0.5-0.2-0.9-0.5-1.3-0.8c-0.4-0.3-0.7-0.7-0.9-1.2s-0.3-1-0.3-1.5
		c0-0.5,0.1-1,0.4-1.5c0.3-0.4,0.6-0.8,1.1-1.1c0.5-0.3,1-0.6,1.6-0.7c0.6-0.2,1.3-0.3,2.1-0.3c0.7,0,1.4,0.1,2.1,0.2
		c0.7,0.1,1.4,0.3,1.9,0.5v-1.3c0-1.2-0.4-2.2-1.1-3c-0.7-0.7-1.7-1.1-2.9-1.1c-0.6,0-1.3,0.1-1.9,0.4c-0.7,0.3-1.4,0.6-2.1,1.1
		l-0.4-0.6c1.6-1.1,3.1-1.6,4.4-1.6c1.5,0,2.6,0.4,3.4,1.3s1.3,2,1.3,3.6v6.5c0,0.4,0.1,0.5,0.4,0.5v0.8c0,0-0.1,0-0.1,0
		s-0.1,0-0.1,0c-0.3,0-0.5-0.1-0.7-0.3c-0.2-0.2-0.3-0.4-0.3-0.7v-1.1c-0.6,0.8-1.3,1.3-2.2,1.7S251.2,122.4,250.1,122.4z
		 M250.2,121.7c0.6,0,1.2-0.1,1.8-0.2c0.6-0.2,1.1-0.4,1.6-0.7c0.5-0.3,0.9-0.6,1.2-1c0.3-0.4,0.5-0.8,0.5-1.2v-2.4
		c-1.2-0.5-2.6-0.7-4-0.7c-0.7,0-1.3,0.1-1.8,0.2c-0.5,0.1-1,0.3-1.4,0.6c-0.4,0.3-0.7,0.6-0.9,0.9s-0.3,0.8-0.3,1.2
		c0,0.4,0.1,0.9,0.3,1.2c0.2,0.4,0.4,0.7,0.7,1s0.7,0.5,1.1,0.7C249.3,121.7,249.7,121.7,250.2,121.7z"/>
	<path fill="#FFFFFF" d="M269.8,122.2h-0.8v-7c0-1.7-0.2-3-0.7-3.8s-1.3-1.2-2.3-1.2c-0.6,0-1.1,0.1-1.7,0.3
		c-0.6,0.2-1.1,0.5-1.5,0.9c-0.5,0.4-0.9,0.8-1.2,1.3s-0.6,1-0.8,1.6v7.8h-0.8v-12.5h0.8v3.1c0.3-0.5,0.6-0.9,1-1.4
		c0.4-0.4,0.8-0.8,1.3-1c0.5-0.3,1-0.5,1.5-0.7s1.1-0.2,1.6-0.2c1.3,0,2.3,0.5,2.8,1.4c0.6,0.9,0.9,2.3,0.9,4.2V122.2z"/>
	<path fill="#FFFFFF" d="M278.6,121.6c0,0-0.1,0.1-0.2,0.1c-0.1,0.1-0.3,0.2-0.5,0.2s-0.5,0.2-0.7,0.2c-0.3,0.1-0.6,0.1-0.9,0.1
		c-0.6,0-1.2-0.2-1.6-0.5s-0.7-0.9-0.7-1.5v-9.8h-1.8v-0.7h1.8v-4.3h0.8v4.3h3v0.7h-3v9.7c0,0.5,0.2,0.8,0.5,1.1
		c0.3,0.2,0.7,0.4,1.1,0.4c0.3,0,0.5,0,0.7-0.1c0.2-0.1,0.4-0.1,0.6-0.2c0.2-0.1,0.3-0.1,0.4-0.2c0.1-0.1,0.2-0.1,0.2-0.1
		L278.6,121.6z"/>
</g>
</svg>
